<?xml version="1.0" standalone="no"?>
<!DOCTYPE svg PUBLIC "-//W3C//DTD SVG 20010904//EN"
 "http://www.w3.org/TR/2001/REC-SVG-20010904/DTD/svg10.dtd">
<svg version="1.0" xmlns="http://www.w3.org/2000/svg"
 width="1584.000000pt" height="589.000000pt" viewBox="0 0 1584.000000 589.000000"
 preserveAspectRatio="xMidYMid meet">

<g transform="translate(0.000000,589.000000) scale(0.100000,-0.100000)"
fill="#000000" stroke="none">
<path d="M7745 5624 c-180 -18 -255 -29 -355 -49 -244 -49 -469 -128 -695
-244 -570 -291 -1034 -804 -1268 -1401 -128 -327 -181 -612 -181 -980 0 -368
53 -653 181 -980 354 -902 1172 -1542 2143 -1676 172 -24 528 -24 700 0 1210
167 2139 1097 2307 2307 23 170 23 528 0 698 -85 608 -355 1144 -788 1567
-141 136 -237 214 -393 318 -332 221 -718 366 -1126 422 -104 14 -447 26 -525
18z"/>
</g>
</svg>
